<svg width="271" height="120" viewBox="0 0 271 120" fill="none" xmlns="http://www.w3.org/2000/svg">
<rect width="271" height="120" rx="4" fill="url(#paint0_linear)"/>
<rect width="70.2593" height="70" transform="translate(100.37 25)" fill="url(#paint1_linear)"/>
<path d="M167.936 73.3385L149.398 54.7337L151.455 44.6373C151.986 44.8438 152.551 44.9517 153.121 44.9558H153.135C155.752 44.9866 157.9 42.8974 157.931 40.2893C157.962 37.6812 155.865 35.542 153.247 35.5111C150.629 35.4803 148.482 37.5695 148.451 40.1776C148.444 40.7357 148.537 41.2905 148.725 41.8163L137.835 43.1405L120.071 25.35C119.853 25.1285 119.555 25.0025 119.244 25C118.937 25.0016 118.642 25.1235 118.424 25.3395L115.103 28.6295C114.646 29.0851 114.646 29.8236 115.103 30.2792L116.89 32.0852C109.967 44.7681 112.216 60.4741 122.422 70.7228C122.516 70.8121 122.624 70.8843 122.743 70.9363C122.669 71.3311 122.631 71.7317 122.628 72.1333V85.6667H108.576C105.344 85.6705 102.725 88.28 102.721 91.5V93.8333C102.721 94.4776 103.246 95 103.892 95H157.758C158.404 95 158.929 94.4776 158.929 93.8333V91.5C158.925 88.28 156.306 85.6705 153.074 85.6667H139.022V79.6688C141.223 80.1288 143.466 80.3633 145.715 80.3688C151.112 80.363 156.424 79.0225 161.172 76.4675L162.969 78.2677C163.187 78.4892 163.484 78.6152 163.795 78.6177C164.103 78.6161 164.397 78.4941 164.615 78.2782L167.936 74.9882C168.393 74.5326 168.393 73.7941 167.936 73.3385ZM151.484 38.6348C152.401 37.726 153.884 37.7301 154.796 38.6437C155.708 39.5574 155.704 41.0348 154.787 41.9435C154.348 42.3785 153.754 42.6226 153.135 42.6225H153.128C151.834 42.6158 150.791 41.5658 150.798 40.2771C150.801 39.6602 151.049 39.0699 151.488 38.6348H151.484V38.6348ZM148.727 46.301L147.413 52.7445L144.832 50.158L148.727 46.301ZM147.397 44.3282L143.181 48.5037L139.92 45.237L147.397 44.3282ZM153.074 88C155.014 88 156.587 89.567 156.587 91.5V92.6667H105.063V91.5C105.063 89.567 106.636 88 108.576 88H153.074ZM136.68 83.3333V85.6667H124.97V83.3333H136.68ZM124.97 81V72.1333C124.97 69.303 127.597 67 130.825 67C134.053 67 136.68 69.303 136.68 72.1333V81H124.97ZM139.022 77.29V72.1333C139.022 68.0162 135.345 64.6667 130.825 64.6667C127.903 64.622 125.17 66.1041 123.621 68.5738C114.712 59.2249 112.706 45.2875 118.618 33.8207L159.46 74.7455C153.154 77.9419 145.924 78.8418 139.022 77.29ZM163.808 75.7943L162.158 74.1412L119.232 31.1157L117.575 29.4613L119.232 27.8163L136.654 45.272C136.662 45.272 136.667 45.2872 136.675 45.293L165.47 74.1493L163.808 75.7943Z" fill="#212121"/>
<path d="M130.836 69.3333H130.825C128.885 69.3304 127.31 70.895 127.307 72.8281C127.304 74.7611 128.874 76.3304 130.814 76.3333H130.825C132.765 76.3362 134.34 74.7716 134.343 72.8386C134.346 70.9056 132.776 69.3362 130.836 69.3333ZM131.655 73.6605C131.435 73.8789 131.136 74.0012 130.825 74C130.178 73.9966 129.657 73.4716 129.66 72.8273C129.662 72.5189 129.786 72.2237 130.005 72.0062C130.223 71.7902 130.518 71.6683 130.825 71.6667C131.472 71.67 131.993 72.195 131.99 72.8393C131.988 73.1477 131.864 73.4429 131.645 73.6605H131.655Z" fill="#2196F3"/>
<defs>
<linearGradient id="paint0_linear" x1="135.5" y1="0" x2="135.5" y2="120" gradientUnits="userSpaceOnUse">
<stop stop-color="white"/>
<stop offset="1" stop-color="white" stop-opacity="0"/>
</linearGradient>
<linearGradient id="paint1_linear" x1="35.1296" y1="0" x2="35.1296" y2="70" gradientUnits="userSpaceOnUse">
<stop stop-color="white"/>
<stop offset="1" stop-color="white" stop-opacity="0"/>
</linearGradient>
</defs>
</svg>
